<svg id="Layer_1" data-name="Layer 1" xmlns="http://www.w3.org/2000/svg" viewBox="0 0 256 256"><defs><style>.cls-1{fill:#fff;}</style></defs><title>search</title><path class="cls-1" d="M100,102.3a54.9,54.9,0,1,1,109.8.3c0,30.2-25,55.1-55.1,54.9A54.9,54.9,0,0,1,100,102.3Zm95.3,0a40.6,40.6,0,1,0-40,40.7C177.4,142.9,195.4,124.6,195.3,102.3Z"/><path class="cls-1" d="M97.9,131.9A66.2,66.2,0,0,0,125,159.1c-1.1,1.3-2,2.4-3,3.4L87.1,197.5c-8.9,8.9-20.8,9.3-28.8,1.2s-7.1-19.7,1.5-28.4Z"/><path class="cls-1" d="M135.3,121.1c24.8,5.2,43.2-14.6,38.1-37.5,5.8,3,9.6,12.2,8.5,22-1.3,11.3-7.7,18.9-18.4,22.8A25.7,25.7,0,0,1,135.3,121.1Z"/></svg>