<svg id="Layer_1" data-name="Layer 1" xmlns="http://www.w3.org/2000/svg" viewBox="0 0 1536 768"><defs><style>.cls-1{fill:#fff;}</style></defs><title>white</title><path class="cls-1" d="M1482.9,639.6c-0.2,39.5-31.4,72-72.1,71.9A71.9,71.9,0,1,1,1482.9,639.6Zm-50.6,34.8,14.2-13.8-22.2-21,21.8-20.8-14.5-14.3-21.2,21.6-20.4-20.5-14,12.9,21.5,21.5-20.9,20.2,13.3,14.4,21.4-21.4Z"/><path class="cls-1" d="M1344.7,367.1c0.1,2.2.2,4,.3,5.8a15.9,15.9,0,0,0,6.6,11.8c6.2,4.7,13.7,3.2,18.6-1.8,3.2-3.3,5.6-7.4,7.7-11.5s3.5-4.6,7.3-4.5c16,0.2,32,.2,48,0,3.7,0,5.9,1.2,7.3,4.6a67.7,67.7,0,0,0,4.5,8.9,14.8,14.8,0,0,0,23.1,3.5,11.5,11.5,0,0,0,4.1-8.8c0-1.8,0-3.6,0-5.8l3.8-.3c6.5,0,13-.1,19.5,0,4.1,0.1,7.4,1.8,9.2,5.7a8.4,8.4,0,0,1-1.9,10.1,11.7,11.7,0,0,1-6.1,2.8c-4.4.6-5.4,1-6.5,4.8q-10.2,34.9-20.3,69.8l-0.7,2.4c-1.4,4.5-3.7,6.3-8.3,6.3H1358.9c-7.6,0-9.5-1.5-11.6-8.8s-4.6-14.9-6.5-22.5-3-14.3-4.7-21.4c-2.3-9.7-4.9-19.3-7.3-29-0.7-2.7-2.2-3.9-5-3.6a10.9,10.9,0,0,1-9.5-3.4c-2.6-2.7-2.9-5.9-1.8-9.3s3.3-5.8,6.7-5.9C1327.6,366.9,1336,367.1,1344.7,367.1Zm37.2,42a10.8,10.8,0,0,0,10.9,10.6c5.9-.1,11.2-5.4,11.1-11.2a10.3,10.3,0,0,0-9.9-9.9C1387.4,398.5,1381.9,403.2,1381.9,409.1Zm59.2,19.5a10.8,10.8,0,0,0-10.8,10.7c0.1,5.2,5.9,11.4,10.8,11.3s10.7-6.1,10.8-11.3A10.8,10.8,0,0,0,1441.1,428.6Zm-32.5-.1c-6.9-.6-10,4.7-10.3,10.2s5,10.9,10.7,10.9,11-5.2,10.8-10.8A10.7,10.7,0,0,0,1408.6,428.5Zm-31.9.1a10.8,10.8,0,0,0-10.6,10.4c0,5.6,5.2,10.8,11,10.7s10.6-5.2,10.6-10.6A10.8,10.8,0,0,0,1376.7,428.6Zm59.4-18.7a10.1,10.1,0,0,0-10.4-10.4A10.2,10.2,0,0,0,1415,410,10.6,10.6,0,1,0,1436.1,409.9Zm-86.2.2a10.8,10.8,0,0,0,10.4,10.6,10.9,10.9,0,0,0,10.7-10.9c0-6.3-4.4-10.3-10.9-10.2A10.1,10.1,0,0,0,1349.9,410.1Zm118.3,0a10.1,10.1,0,0,0-10.1-10.6,10.4,10.4,0,0,0-11,10.3,10.9,10.9,0,0,0,10.7,10.8A10.8,10.8,0,0,0,1468.1,410.1Z"/><path class="cls-1" d="M726.2,335.6c0,1.9,0,3.2,0,4.6,0,25,0,50-.1,74.9a16.9,16.9,0,0,1-1.7,7.6c-1.6,2.9-4.5,4.2-8,4.2h-21c-24.3,0-48.6.1-72.9-.1a9.4,9.4,0,0,0-8.1,3.6,323.9,323.9,0,0,1-23,24.4c-0.1-4.5-.1-9-0.1-13.5s0-9.2,0-14.4H563.4c-6.8-.1-10.4-3.6-10.5-10.5-0.1-12.5,0-25,0-37.5,0-14.1,0-28.3,0-43.4l5,2.8c25.9,15.9,51.9,31.8,77.8,47.9,3.1,1.9,5.1,1.7,8.1-.2,25.9-16.1,51.8-31.9,77.8-47.9Z"/><path class="cls-1" d="M447.8,715.3c-8.9,4.8-18.2,7.4-27.7,9.2a164,164,0,0,1-36.2,3A227.1,227.1,0,0,1,323.3,717c-2.4-.8-3.1-1.9-3.1-4.2,0.1-12.2-.2-24.3.1-36.5,0.5-23.4,16-42,38.8-46.9a44.7,44.7,0,0,1,8.9-.8c10.7-.1,21.3.1,32-0.1,21.5-.3,40.9,14.7,46.4,36.1a38.3,38.3,0,0,1,1.4,8.8C447.9,687.3,447.8,701.1,447.8,715.3Z"/><path class="cls-1" d="M836.7,154.6l8.8,11.5c-6,3.8-11.6,7.6-17.4,11.1-3.1,1.8-5.5.2-5.7-3.6-0.2-5.7-.2-11.3-0.2-17s-0.3-9.7,0-14.5-1.4-5.8-4.3-7.7c-7.6-4.8-15.1-9.7-22.6-14.7-1.9-1.2-4.5-2.2-4-5.1s3.3-3,5.5-3.6l87.9-22.3L988,62.5c2.3-.6,4.5-1.2,6.8-1.6s4.5-1.1,5.7,1.5-0.5,3.7-1.9,5.2L979.9,86.9l-89.1,91.7-13.8,14.4c-3.6,3.7-5.2,3.6-8.3-.6l-27.3-36.3C840.3,154.8,839.5,152.8,836.7,154.6Zm35.7,34.8,0.7,0.2a5.6,5.6,0,0,0,.7-1.5c0.7-5.6,1.4-11.2,2.1-16.8,1.9-14.5,3.9-29,5.6-43.5,0.5-4,2.2-6.1,5.7-7.9l90.2-46.1,4.2-2.3a7.1,7.1,0,0,0-4.3.7c-29.9,13.5-59.8,26.9-89.6,40.6a38.4,38.4,0,0,1-19.2,3.5c-16.3-1-32.6-1-48.9-1.4l-19-.7a6,6,0,0,0-2.2,1v0.9l64.1,6.1,0.2,1.3-4.2,2.1c-8.8,4-17.6,8-26.4,11.8-3.3,1.4-5,3.6-4.9,7.2s0,8.3.1,12.5a11.6,11.6,0,0,0,.6,2.6h1c0.6-3.3,1.5-6.6,1.6-10s1.5-4.4,4-5.5l35.5-16.1a7.7,7.7,0,0,1,2.2-.3v61.7Z"/><path class="cls-1" d="M1116.3,656.3c0-2.7,0-4.3,0-6q0-36.7,0-73.5c0-13,6.9-20.3,20-20.9,9.9-.4,18.2,3.6,26.4,9,12,8,24.8,14.9,40,12.7,7-1,13.8-3.6,20.6-5.5,1.4-.4,2.8-1,4.6-1.7V656c-18.2,9.5-36.8,13.6-56.6,4.3-3.9-1.8-7.9-3.6-11.7-5.7C1145.3,646.9,1131.1,645.8,1116.3,656.3Z"/><path class="cls-1" d="M639.5,381.1l-26.4-16.1-55.7-34.2c-4.6-2.8-5.7-5.8-4.3-12.2A9.9,9.9,0,0,1,562,311H713.4a24,24,0,0,1,5,.3c4.7,1,7.3,4.4,7.8,9.2s-0.7,8.4-5.5,11.3c-25.7,15.4-51.1,31.2-76.7,46.9Z"/><path class="cls-1" d="M1457.9,93.9h30.8V207.4H1386.4V151.8c18.7,4.2,35.5.6,50.2-11.3S1457.6,112.7,1457.9,93.9Zm-54.6,79.4H1472l-0.3-5.2h-68.4v5.2Zm0,17H1472l-0.3-5.2h-68.5v5.2Zm68.6-39.4h-34.1v5.2h34.1v-5.2Zm-17.1-17.5v5.7H1472l-0.3-5.7h-16.9Z"/><path class="cls-1" d="M240,141.9L132.2,175.8V99.6l66.3-20.7Z"/><path class="cls-1" d="M17.1,141.9L56.5,82.3l68.1,16.7v76.6Z"/><path class="cls-1" d="M819.5,584.1l4.5-4.7,27.2,27.2,27.1,27.1,4.9-5.1L830.8,572l5.7-3.6,55.7,51.7,5.1-4.8L843.1,561l4.5-4.7,12.3,10.4c18.5,16,36.9,32.2,55.6,48,5.9,5,9.1,10.8,9.4,18.4,0.2,3.7.8,7.3,0.9,10.9,0.2,6.8,3.5,11.5,8.7,15.5q23.7,17.9,47.3,36c9.8,7.5,8.8,21.5-1.8,27.6a16,16,0,0,1-20.9-4.4c-11.4-14.9-23.1-29.7-34.1-45-5.6-7.7-12.3-11.7-21.7-11.9-3.3,0-6.6-.8-9.9-0.8-5.4-.1-9.6-2.6-13-6.5l-22-25.3-36.9-42.7Z"/><path class="cls-1" d="M630,578.7V564.9c-2,0-3.7.1-5.5,0s-4.4-1.9-4.4-4.9,1.5-5.1,4.7-5.1h36.5c3.2,0,4.8,1.8,4.7,5.1s-1.5,4.8-4.8,5h-4.9v14c25.9,5.8,45.2,20.4,55.8,45.4a72,72,0,0,1,3.1,48.3c-9.2,33.9-41.2,58.3-78.8,54.9-35.5-3.2-61.6-29.7-67.1-62.6C563,628.2,586,587.8,630,578.7Zm12.7,136.2c32.3,0.8,62-26.1,62.4-61.4s-28.7-62.9-62.2-62.8a62.3,62.3,0,0,0-61.9,62C580.9,688.4,610.6,715.3,642.6,714.9Z"/><path class="cls-1" d="M1198.1,326V313.7c9.8,0.2,16.9,4.6,21.9,12.5a26,26,0,0,1,3.8,14.3c0,38,0,76,0,114,0,15.3-11.1,26.8-26.3,26.9q-44.7.4-89.5,0c-15.5-.2-26.1-11.5-26.1-26.9-0.1-38.2.1-76.3-.1-114.5-0.1-10.9,7-22.5,19.7-25.6a49.2,49.2,0,0,1,6-.7v12.2c-2.6,1.1-5.2,1.7-7.3,3.1-4,2.7-5.5,6.7-5.4,11.6,0.1,24.7.1,49.3,0.1,74q0,20,0,40c0,8.7,4.8,13.6,13.6,13.6h88c9.5,0,14.4-4.9,14.4-14.4q0-55.5,0-111C1210.9,332.4,1208.2,328.7,1198.1,326Z"/><path class="cls-1" d="M84.7,709c0.4-11.6-.2-23.3,1.5-34.8,2.4-15.9,16.7-27,32.9-27.4,7.5-.1,15-0.1,22.5,0,19.8,0.2,34.7,14.8,35.2,34.7,0.2,8-.1,16,0.1,24a4.5,4.5,0,0,1-3.2,4.9,90.2,90.2,0,0,1-23.6,6.1c-21.5,2.8-42.4-.1-63-6.6Z"/><path class="cls-1" d="M826.9,453.3H962.7c0.1-1.5.3-3,.3-4.4,0-12.5,0-25,0-37.5a18.8,18.8,0,0,1,.7-5.4,9.8,9.8,0,0,1,10.2-7.1,10.5,10.5,0,0,1,9,9.3,29.7,29.7,0,0,1,.1,3q0,25.2,0,50.5c0,8.1-3.9,12-11.8,12H818.8c-8.2,0-12-3.6-12-11.7-0.1-17.2,0-34.3,0-51.5,0-3.6.5-7,3.7-9.3s7-3.2,10.8-1.2a10,10,0,0,1,5.6,9.3c0.1,6.8,0,13.7,0,20.5S826.9,445.1,826.9,453.3Z"/><path class="cls-1" d="M351.4,197.7l4.2-15.6c3.1-11.5,6.4-23,9.3-34.7,4.5-18.5,1.2-36.1-7.3-52.7-5.6-10.9-12.1-21.4-18.2-32.1a36.3,36.3,0,0,1-2.5-5.4c-0.9-2.4.1-4.1,2.2-5.5a4,4,0,0,1,5.4.5,55.1,55.1,0,0,1,5.4,6.5c4.7,6.6,9.1,13.6,14.1,20,10.8,13.8,29.9,15.7,41.3-.7,5.2-7.5,10.3-15.2,15.4-22.7a17.4,17.4,0,0,1,2-2.8,5.4,5.4,0,0,1,7.3-.7c2.2,1.5,2.9,3.6,1.4,6.6s-4.2,7.6-6.3,11.3C420,78.9,415,88.2,409.6,97.2c-8.3,13.9-9.2,29-7.1,44.5s7.3,32.4,12,48.3c0.7,2.2,1.3,4.5,1.7,6.8,1.1,5.4-1.1,9.1-6,10.4s-7.9-1.3-9.3-6.2c-2.4-8.3-4.7-16.6-6.9-25-1.7-6.6-3.2-13.2-5-19.8a25,25,0,0,0-2.2-6c-1.3-2.4-3.3-2.4-4.6-.1a22.3,22.3,0,0,0-2.2,5.5c-3.4,12.8-6.7,25.7-10.2,38.6a41.4,41.4,0,0,1-3.2,8.9c-2.8,5.1-10.2,5.8-13.4,1.2C352.2,202.5,352.1,200.2,351.4,197.7Z"/><path class="cls-1" d="M203.8,409.4c-0.5,10.2-4.3,18.9-10,26.9a68.5,68.5,0,0,1-24.2,20.5c-2,1.1-3.3,2.1-3.8,4.7s-3.6,5.8-6.7,7.7a48.1,48.1,0,0,1-20.3,6.3c-10.3,1-20.7,1.2-30.7-1.8a72.4,72.4,0,0,1-11.9-5c-3-1.5-5.6-4-6.1-7.5s-1.8-3.3-3.6-4.2a70.9,70.9,0,0,1-23.9-20.1,57.4,57.4,0,0,1-10.4-23.5,37.7,37.7,0,0,1-.3-4.5c8.8,9.3,20.1,11.7,31.3,14,18.8,3.9,38,4.8,57.1,3.9,14.6-.7,29.2-2.3,43.3-6.6C191.1,417.8,198.2,415.2,203.8,409.4Z"/><path class="cls-1" d="M680.8,95.9c-0.3,11.4-3.1,20.9-9.6,29-4.9,6.1-10.1,12-15.2,17.9A81.7,81.7,0,0,0,643,162.7a1.5,1.5,0,0,1-.2.5c-1.2,1.2-2.3,3.1-3.7,3.5s-2.9-1.7-3.7-3.3c-2-3.6-3.6-7.6-6.1-10.8-6.3-8.1-13-16-19.6-23.9s-12.6-19.3-12.2-31.3c0.7-22.1,16.5-41,40-42a41.4,41.4,0,0,1,42.7,33.9C680.4,91.8,680.6,94.4,680.8,95.9Zm-42,22.9a22,22,0,0,0,22.1-21.7c0-12-9.9-22.3-21.8-22.1A21.9,21.9,0,1,0,638.8,118.8Z"/><path class="cls-1" d="M905,327.3c0,19.8,0,38.4,0,57.1,0,9.7,0,19.3,0,29,0,6.4-4.6,11.4-10.1,11.3s-9.8-5-9.8-11.1c-0.1-9,0-18,0-27q0-26.7,0-53.5c0-1.6,0-3.2,0-5.9l-7.8,7.6c-5.6,5.4-11.2,10.9-16.9,16.3-3.4,3.2-7.2,3.5-11,1.5s-6.2-6.2-5.2-10.4a13.3,13.3,0,0,1,3.3-5.9q19.7-19.9,39.6-39.5c5.6-5.5,10-5.5,15.6,0,13.4,13,26.6,26.2,39.8,39.3,7.2,7.2,2.6,15.5-4,17.3-4.4,1.2-7.8-.7-10.8-3.6l-18.4-18.3Z"/><path class="cls-1" d="M437.9,327.8c-0.4,2.1-.7,4.6-1.2,7-1.6,7.3-1,14.3,3.8,20.3s1.9,19.7-5.6,22.8-12.1,9.8-13.9,18.1-11.8,14.3-20.4,11.3-15-1.8-21.4,3.7a9.8,9.8,0,0,1-8.8,2.4,83.8,83.8,0,0,1-9.1-2.6,11.4,11.4,0,0,1-7.3-7c-3-7.6-8.6-11.9-16.7-13.2s-14.9-11.2-12-19.5,1.9-16.5-3.2-24.1-1.5-16.3,5.4-19.7,13.6-10.7,15.6-19.6a15.2,15.2,0,0,1,19.9-11c7.4,2.8,14.7,1.3,21.5-2.8,9.4-5.7,18.2-3.3,23.6,6.3,3.8,6.8,9.3,11.1,16.9,12.8S436.8,319.1,437.9,327.8Zm-56.3,69c22.3,0.7,45.2-17.6,45.2-44.8,0-24.3-18.8-44.8-45.1-45s-45.3,19.6-45.3,44.8C336.5,380.3,360,397.2,381.5,396.8Z"/><path class="cls-1" d="M1123.8,102c-0.9-25.7,20.1-54.7,54.8-54.9,33-.1,55.6,26.9,55.3,55.6s-22.2,54.8-55.3,54.6S1123.2,129.3,1123.8,102Zm95.3,0.4a40.5,40.5,0,0,0-39.5-40.6c-21.3-.4-41.3,16.1-41.3,40.3A40.4,40.4,0,1,0,1219.1,102.4Z"/><path class="cls-1" d="M346.9,588.1a37.2,37.2,0,0,1,37.5-37.3c18.3,0,37.1,14,37.2,37.7s-19.6,37.4-37.6,37.4C364.1,625.8,346.3,609.1,346.9,588.1Z"/><path class="cls-1" d="M662.9,147c4-4.3,7.1-7.9,10.5-11.1,0.9-.9,2.8-0.9,4.2-0.9,6.5-.1,13,0.1,19.5-0.1,3.2-.1,4.9,1.2,6.2,3.9,8.8,18.1,17.7,36.2,26.5,54.3,2.2,4.4,1.1,6.1-3.8,6.3H554.6c-8.3,0-9-1.1-5.4-8.5,8.3-17,16.8-34.1,24.9-51.2,1.8-3.7,4-5.2,8.1-4.9,6,0.3,12,.2,18,0a7.7,7.7,0,0,1,6.8,3.3c2.2,2.8,4.7,5.4,7.7,8.8l-5.2.3c-7.2,0-14.3.1-21.5,0a5.6,5.6,0,0,0-5.8,3.6c-5.4,11.4-11,22.8-16.6,34.2a9.5,9.5,0,0,0-.4,1.7H712.8a17.4,17.4,0,0,0-.7-2.1c-5.4-11.1-10.9-22.1-16.1-33.3-1.4-3-3.2-4.2-6.5-4.1-7.2.2-14.3,0.1-21.5,0.1Z"/><path class="cls-1" d="M1375,137.8c-8.5,8.5-16.5,16.7-24.7,24.8a22.3,22.3,0,0,1-5.5,4.1,11.2,11.2,0,0,1-14.4-15.6,26.2,26.2,0,0,1,4.1-5l19.8-19.8,4.6-4.8c-7.4-13.4-9.2-27.2-4.1-41.5A47.2,47.2,0,0,1,1375,55c19.7-12.1,44-8.9,60.3,7.7a48.3,48.3,0,0,1,5.7,60.2,47.5,47.5,0,0,1-30,20.8C1398.5,146.6,1386.7,144.3,1375,137.8Zm25.3-4.2c20.3-.4,37.1-15.6,37.3-37.1s-15.4-37.5-37.4-37.4-37.1,16.6-37,37.2S1379.4,133,1400.3,133.6Z"/><path class="cls-1" d="M79,689.7a165.8,165.8,0,0,1-41.4-8.1c0.4-11.9-.3-24,1.6-35.7,2.7-17,19.1-26.7,31.9-26.4,8.6,0.2,17.3,0,26.3,0,0.9,8.6,3.8,16.2,10.2,22.5C86,650.7,77.1,666.7,79,689.7Z"/><path class="cls-1" d="M1114.1,313.7h12.6c0.8-8.3,3.8-15.3,10.3-20.4a25.5,25.5,0,0,1,33.7,1.8c3.9,3.7,4.5,5.2,8.6,18.5h12.1c0.1,1.6.3,2.9,0.3,4.2,0,6.5-.1,13,0.1,19.5s-3.2,8.8-8.4,8.7c-20.3-.3-40.6-0.1-60.9-0.1-6.2,0-8.3-2.2-8.4-8.4S1114.1,322.1,1114.1,313.7Zm51.5-.3c-0.7-8.3-6.3-13.3-14-12.7a11.9,11.9,0,0,0-11,12.7h25.1Z"/><path class="cls-1" d="M220.9,681.3c-12,5.8-24.4,7.9-37.9,8.5,0-2.6,0-4.9,0-7.2-0.3-18.7-8.9-31.9-26.3-39.2l-2.4-1.3a37.7,37.7,0,0,0,9.9-22.3c9.7,0,19.3-.8,28.6.2,14.9,1.6,27.6,16.2,28.1,31.3C221.2,661.1,220.9,671,220.9,681.3Z"/><path class="cls-1" d="M350.5,138.8c-1.4,3-2.9,5.2-3.6,7.6-2.5,9.5-4.7,19-7,28.5a43.6,43.6,0,0,1-2.2,7.1,13.8,13.8,0,0,1-3.2,4.3,6.2,6.2,0,0,1-7,1,5.7,5.7,0,0,1-3.4-6.2,56.8,56.8,0,0,1,1.7-7.8c2.4-9.2,5.3-18.2,7.2-27.5,3.8-18.2-1.7-34-14.4-47.1-6-6.2-13.2-11.2-19.8-16.7a28.5,28.5,0,0,1-3.5-3.5c-1.2-1.4-1.5-3-.1-4.5s2.7-2.6,4.8-1.6a35.4,35.4,0,0,1,4.8,2.6L320,85.6a56.5,56.5,0,0,0,5.2,3c6,3.2,12.2,4.2,18.7,1.1l5-2.1c14.9,15.6,20,49.2,9.8,70.7C357,151.5,356.7,144.4,350.5,138.8Z"/><path class="cls-1" d="M1122,131.4a66.8,66.8,0,0,0,27.2,27.4,19.6,19.6,0,0,1-1.3,1.7l-37.8,37.8c-4.6,4.6-10.2,6.9-16.7,5.8s-13.6-5.8-15.7-13.5-0.6-14.4,5.3-20.2c10.8-10.6,21.5-21.4,32.2-32.1Z"/><path class="cls-1" d="M417.7,139.4c-4.8,4-5.8,6.4-8.2,18.7-9.1-17.4-7.3-49.5,9.3-70.3l4.8,2c7.3,3.4,14.4,2.3,20.9-1.8s12.4-8.4,18.7-12.5a15.1,15.1,0,0,1,5.8-2.6,5.2,5.2,0,0,1,4,2c0.6,0.9.3,2.9-.3,4a13,13,0,0,1-3.4,3.6c-5.4,4.4-11,8.6-16.3,13.1-13.4,11.4-20.1,26.1-19,43.6,0.5,7.4,2.9,14.6,4.7,21.9,1.4,5.6,3.2,11.2,4.7,16.8a15.4,15.4,0,0,1,.6,3.4c0.1,3.2-1.1,5.4-3.6,6.5a5.7,5.7,0,0,1-7.2-1.6,22.4,22.4,0,0,1-4.1-7.8c-1.6-6.3-2.6-12.7-4.1-19-1.1-4.7-2.6-9.3-4.2-13.8A48.7,48.7,0,0,0,417.7,139.4Z"/><path class="cls-1" d="M1109.1,642.3q0,36.2,0,72.4c0,1.3,0,2.7,0,4-0.3,6.5-4.9,9.7-11,7.5a5.7,5.7,0,0,1-3.1-3,23.3,23.3,0,0,1-1.6-7.7q-0.1-73.7,0-147.4a19,19,0,0,1,.4-4.4c1.2-5.1,3.6-6.5,9.7-5.9,3.3,0.3,5.3,2.7,5.6,7,0.1,1.5.1,3,.1,4.5Q1109.1,605.8,1109.1,642.3Z"/><path class="cls-1" d="M130.7,644.9c-13.6.6-26.8-11.3-26.7-26.5a26.8,26.8,0,0,1,27-26.8,26.5,26.5,0,0,1,26.7,26.6C157.8,635.2,143.6,645.6,130.7,644.9Z"/><path class="cls-1" d="M128.1,377.2c18.4,0.2,36.6,1.7,54.3,6.8,5.4,1.5,10.5,4.1,15.6,6.5a14.4,14.4,0,0,1,4.8,4.2c2.2,2.9,2.2,6.7-.5,9.1a41.2,41.2,0,0,1-9.8,6.7c-10.2,4.8-21.2,6.6-32.3,8.1a234.2,234.2,0,0,1-42.4,1.9c-17.7-.8-35.2-2.6-51.9-8.9a44.7,44.7,0,0,1-9.7-5.1c-6.6-4.6-6.8-10.3-.1-14.9a59.7,59.7,0,0,1,14.3-6.9,125.2,125.2,0,0,1,30.8-6C110.1,378.2,119.1,377.7,128.1,377.2Zm69.2,28.6a16.4,16.4,0,0,0-8.3-7c-5.7-2.1-11.5-4.6-17.5-5.8a220.9,220.9,0,0,0-80.9-1.3c-8.4,1.4-16.6,3.4-24.3,7.3-2.9,1.5-6,2.9-7.6,6.6,2.2,1.1,4.2,2.2,6.3,3.1,15.5,6,31.9,8.1,48.3,8.8,12.8,0.5,25.6-.1,38.4-0.7a132.2,132.2,0,0,0,36.6-7.1C191.3,408.6,194.1,407.2,197.3,405.8Z"/><path class="cls-1" d="M57,590.3a26.8,26.8,0,0,1,53.2-4.3c0.7,3.8.2,6.5-2.9,9.2A26.3,26.3,0,0,0,99,609.7c-0.7,3.2-2.4,4.8-5.2,5.9A26.8,26.8,0,0,1,57,590.3Z"/><path class="cls-1" d="M860.6,652.3l14.2,15.8L854.5,698c-4.4,6.5-8.6,13-13.1,19.4-6.6,9.4-18.7,10.3-26.2,2.1-4.8-5.2-5.5-12.9-1.7-19.4a24.1,24.1,0,0,1,3.7-4.7l40.9-40.9Z"/><path class="cls-1" d="M148.3,590.1c1.1-11.7,6.6-20,17.1-24.2s20.1-2.2,28.2,5.3,10.3,16.2,7.5,26.4-10.1,17.4-21.1,19.3a34.7,34.7,0,0,1-8.8.2c-4.6-.4-7.5-2.1-8.5-7.6C161,601.1,155.3,595.1,148.3,590.1Z"/><path class="cls-1" d="M1469.6,371.6c-0.7,4.5-2.5,7.6-6.4,9.4s-7.8,1.9-11.3-.8a17.3,17.3,0,0,1-4-5c-9.2-16.3-18.5-32.7-27.5-49.2a20.5,20.5,0,0,1-2.7-8.8c-0.1-4.2,2.2-7.6,6.2-9.4s7.6-.7,10.8,1.7a18,18,0,0,1,4.7,5.7q13.6,24.1,26.9,48.4A74.5,74.5,0,0,1,1469.6,371.6Z"/><path class="cls-1" d="M1360,381.8c-8.3-.1-13.3-8.1-9.5-15.5q14.3-27.1,29-54.1c3.2-5.9,8.3-7.7,13.3-5.2s8.6,9.2,5.8,15c-6.4,12.8-13.1,25.4-19.7,38.1-2.7,5.1-5.7,10.2-8.4,15.3S1364.8,381.9,1360,381.8Z"/><path class="cls-1" d="M391.9,428c15.5-1.6,28.5-7.4,40.6-16.6l20.6,47.5-30.2-14.1-9.3,30.7-0.9.2Z"/><path class="cls-1" d="M316,457.2l19.4-42.9c6.5,3.4,12.5,7.2,19.1,9.7s13.7,3.8,21.2,5.7l-20.1,45.9h-0.9l-9.3-30.7-28.7,13.3Z"/><path class="cls-1" d="M936.5,622.2c-2.9-11.8-12.8-17.3-20-24.2l38.4-38.4c3.4,3.1,5.6,8.1,6,13.8,0.6,7.9-1.8,15.1-5.2,22.1a110.9,110.9,0,0,1-17.2,25A23.4,23.4,0,0,1,936.5,622.2Z"/><path class="cls-1" d="M135.4,363.7c18.9-14.7,39.2-21,62.5-15.3C191.5,365,157,373.6,135.4,363.7Z"/><path class="cls-1" d="M133,357.3c3.8-17,11-30.7,28-37.2C164,337,151,352.5,133,357.3Z"/><path class="cls-1" d="M196.6,316.1c-1.2,15.8-17.3,28.5-36.1,28.3C166.7,328.5,182.8,315.7,196.6,316.1Z"/><path class="cls-1" d="M1172.4,400.7h20.5c3.6,0,4.9,1.3,5,4.6s-1.4,5.2-5.1,5.2h-41.5c-3.4,0-5.1-1.7-5.2-4.7s1.7-5.1,5.2-5.1h21Z"/><path class="cls-1" d="M1172.3,432.8h20.5c3.8,0,5.4,1.9,5.1,5.6s-1.4,4-4.5,4.2h-42c-4.4,0-6.4-3.6-4.6-7.5,0.9-2,2.5-2.4,4.5-2.4h21Z"/><path class="cls-1" d="M1172.3,377.9h-21c-4.3-.1-6.1-3.3-4.4-7.1,0.9-2.1,2.6-2.3,4.5-2.3h41.5c4,0,5.7,2.2,5,6s-2,3.5-4.6,3.4C1186.3,377.9,1179.3,377.9,1172.3,377.9Z"/><path class="cls-1" d="M1119.3,439.6l9.3-12.1a20.8,20.8,0,0,1,2.2-2.7,4.9,4.9,0,0,1,6.8-.4,5.1,5.1,0,0,1,1.4,7.1,13.3,13.3,0,0,1-2.3,2.6l-13.4,12.7c-3.3,3.1-5.8,3-9-.2a37.5,37.5,0,0,1-5-5.6,7.9,7.9,0,0,1-1.3-5,5.1,5.1,0,0,1,2.9-3.5c1.2-.3,3.2.6,4.2,1.5S1117.7,437.3,1119.3,439.6Z"/><path class="cls-1" d="M1119.5,407.3c3.6-4.7,6.7-9,10-13.1s5.3-4,8.1-2,3.4,5.1,1.2,7.4c-5.3,5.5-10.9,10.8-16.5,15.9-2.4,2.2-4.8,1.9-7.1-.4a67.1,67.1,0,0,1-6.3-7.1,5,5,0,0,1,1.2-7.4c2.2-1.4,4-.8,6.2,2.2l1.4,2.1Z"/><path class="cls-1" d="M1119.4,375.1c3.7-4.8,7-9.3,10.5-13.7s5.2-3.4,7.8-1.4,3.2,5.1.9,7.4q-8.1,8.2-16.6,15.8c-2.4,2.2-4.6,1.8-7.1-.6a53.4,53.4,0,0,1-5.9-6.8,5.4,5.4,0,0,1-1-4.1,6.5,6.5,0,0,1,3.2-3.8c1.1-.4,3.1.7,4.1,1.7S1117.9,373,1119.4,375.1Z"/><path class="cls-1" d="M384.1,64.8a10.4,10.4,0,1,1,.3,20.9A10.4,10.4,0,0,1,384.1,64.8Z"/><path class="cls-1" d="M608.1,580A82.8,82.8,0,0,0,583,599.1c-3.7-6.5-1.9-14.3,3.9-19.5S603.3,574.2,608.1,580Z"/><path class="cls-1" d="M410.8,65.7l-9,11.8c-0.9-5.8-1.7-10.6-2.5-15.4-0.4-2.8-.9-5.6-1.2-8.4s0.9-6.2,3.1-6.6,3.9,1.3,5.1,4.7S409.3,61,410.8,65.7Z"/><path class="cls-1" d="M366.4,77.4l-9-11.9,3.9-12.7c1.3-4.2,3.5-6.4,5.7-5.8s3.4,3.2,2.8,7.7C368.8,61.9,367.6,69.1,366.4,77.4Z"/><path class="cls-1" d="M438.7,78.6c0.1,3.9-2.4,7.1-6.5,8.4a8.1,8.1,0,0,1-9.5-3.6,4,4,0,0,1-.2-3.2,47.9,47.9,0,0,1,4.7-8.2,5.5,5.5,0,0,1,4.2-1.7C435.4,70.7,438.5,74.5,438.7,78.6Z"/><path class="cls-1" d="M339,87.4a9.2,9.2,0,0,1-9.5-8.6,8.7,8.7,0,0,1,7.4-8.7c1.8-.3,3.2,0,4.2,1.8s2.5,4.3,3.7,6.5,1.6,5.3-1.8,7.4A20.6,20.6,0,0,1,339,87.4Z"/><path class="cls-1" d="M99.6,353.2c-2.7-.1-6.4-3.4-6.1-5.6s1.3-3.4,3.5-3.6,6.5,3.2,6.5,5.3S101.3,353.2,99.6,353.2Z"/><path class="cls-1" d="M104,361.9c0.1,2-3.3,5.3-5.6,5.5a4,4,0,0,1-4.1-3.5c-0.2-2.1,3.4-5.7,5.9-5.8A3.9,3.9,0,0,1,104,361.9Z"/><path class="cls-1" d="M89,338.6a3.8,3.8,0,0,1-3.9,3.7c-2.6-.2-6.2-3.7-5.8-5.8a3.7,3.7,0,0,1,3.7-3.3C85.7,333,89.1,336.1,89,338.6Z"/><path class="cls-1" d="M95.8,321a4,4,0,0,1,3.8,3.8c0,2.3-3,4.8-6,4.9a3.8,3.8,0,0,1-4.1-3.9C89.7,323.8,93.3,321,95.8,321Z"/><path class="cls-1" d="M117,315.5a4,4,0,0,1-3.6,3.9c-2.4,0-6.2-3.5-6.2-5.6a3.9,3.9,0,0,1,4-3.5C113.8,310.5,117,313.3,117,315.5Z"/><path class="cls-1" d="M105.9,335.7c0,2.6-3.2,6.2-5.5,6a3.3,3.3,0,0,1-3.4-3.5c-0.1-2.8,2.8-6.3,5.1-6.3A3.9,3.9,0,0,1,105.9,335.7Z"/><path class="cls-1" d="M121.9,299c0.1,2.3-2.8,5.6-5.1,5.8a3.8,3.8,0,0,1-4.2-3.2c-0.1-2.1,3.4-6.2,5.4-6.3A4,4,0,0,1,121.9,299Z"/><path class="cls-1" d="M121,340a3.5,3.5,0,0,1-3.9,3.6c-2.5-.2-6-3.3-5.9-5.3a4.1,4.1,0,0,1,4.1-3.6C117.9,334.8,121.1,337.7,121,340Z"/><path class="cls-1" d="M118.1,371.9c-3.7.1-6.2-1.8-6.1-4.3a4,4,0,0,1,4-3.6c3.5-.1,6,1.8,5.9,4.5S120.7,371.8,118.1,371.9Z"/><path class="cls-1" d="M95.1,303.1c0,3.1-1.3,4.7-3.8,4.6s-3.8-2.3-3.8-6a3.8,3.8,0,0,1,4-4.1C93.9,297.7,95.1,299.5,95.1,303.1Z"/><path class="cls-1" d="M104.9,323.9c2.5-.1,5.8,2.8,5.4,4.5a4.8,4.8,0,0,1-2.7,2.9c-1.4.5-4.8-2.8-4.5-4.5S104.4,324.6,104.9,323.9Z"/><path class="cls-1" d="M88.1,314.6c0.2,1.8-.3,3.5-2.6,3.8s-3.1-1.8-3.1-4.2,1.3-4.4,3-4.2S88.1,312.5,88.1,314.6Z"/><path class="cls-1" d="M81.9,351.6c0.6-.5,1.5-1.7,2.7-2.1s4.4,2.7,4.5,4.5-0.7,2.9-2.5,2.9S82.1,354.4,81.9,351.6Z"/><path class="cls-1" d="M107.1,306.5a9.4,9.4,0,0,1-2.7,2c-1.3.4-4.9-3.1-4.5-4.5a4.9,4.9,0,0,1,2.7-2.9C103.9,300.6,106.9,303.9,107.1,306.5Z"/><path class="cls-1" d="M105.9,294.3c-0.1-2,.2-3.8,2.8-3.6s2.7,2.1,2.9,4-0.6,3.7-2.8,4S105.9,297.3,105.9,294.3Z"/><path class="cls-1" d="M113.1,350.3c0.1,2.7-.1,4.6-2.7,4.4s-2.6-2.1-2.6-4-0.2-4,2.4-4S113.1,348.9,113.1,350.3Z"/><path class="cls-1" d="M642.7,705.9a53.1,53.1,0,1,1,.9-106.2c29,0.1,52.6,24.2,52.4,53.6S671.4,706.4,642.7,705.9Zm0.2-94.8c-24.8-1.8-47.9,26.1-39.3,54.4l39.3-15.2V611.1Z"/><path class="cls-1" d="M381.6,390.9c-22.8.2-39.2-19.4-39.2-38.8a39.5,39.5,0,0,1,39.5-39.1c21.3-.1,39.3,18,39,39.2C420.5,375.9,400.5,391.4,381.6,390.9Zm-5.4-33.7-10.9-10.4-6.4,6.9,17.8,18,31.6-32.4-6.5-7.6Z"/><path class="cls-1" d="M1159.4,121.1c11.5,2.1,21.7-.1,30-8.4s10.2-18.5,8.1-29.9c7.7,6.4,9.9,14.8,8.4,24-1.8,11.4-8.8,18.8-19.8,21.9S1166.8,128.9,1159.4,121.1Z"/><path class="cls-1" d="M1397.9,110.6v5.7h22.6c-7.8,7.1-15.8,9.4-25,8l-2.4-.6c-6.8-1.8-7-2.1-7-9.1,0-12.5,0-24.9,0-37.7a29.9,29.9,0,0,1,3.5-.4c9.3,0,18.7.1,28-.1a6.1,6.1,0,0,1,5.8,3c2.8,4,4.8,8.3,4.9,13.9h-30.2V99h29.9c0.8,4-.7,7.1-2.2,10-0.5.9-2.4,1.5-3.7,1.6-6.3.2-12.7,0.1-19,.1h-5.1Z"/><path class="cls-1" d="M109.5,411a3.9,3.9,0,0,1-4,3.6c-2.2-.2-4.7-3.6-4.6-6.3a3.3,3.3,0,0,1,3.9-3.5C106.8,405,109.7,408.7,109.5,411Z"/><path class="cls-1" d="M115.9,399c-0.2,1.8-1.5,2.8-3.6,2.9s-6.4-3.1-6-5.4a3.6,3.6,0,0,1,3.6-3.4C112.5,393,116,396.3,115.9,399Z"/><path class="cls-1" d="M124.1,409.9c-2.4,0-3.9-1.3-4-3.4s3-4.7,6.1-4.7a3.7,3.7,0,0,1,3.9,3.6C130.2,407.9,127.5,409.9,124.1,409.9Z"/></svg>