<?xml version="1.0" encoding="utf-8"?>
<!-- Generator: Adobe Illustrator 19.2.1, SVG Export Plug-In . SVG Version: 6.00 Build 0)  -->
<svg version="1.1" id="Layer_1" xmlns="http://www.w3.org/2000/svg" xmlns:xlink="http://www.w3.org/1999/xlink" x="0px" y="0px"
	 viewBox="0 0 20 16.7" style="enable-background:new 0 0 20 16.7;" xml:space="preserve">
<style type="text/css">
	.st0{fill:#FFFFFF;}
</style>
<g>
	<path class="st0" d="M3.4,6.3c0,0.3,0,0.7,0.1,1c0.2,0.6,0.7,1,1.3,1.1C5.5,8.4,6,8.1,6.4,7.5C6.6,7.2,6.8,6.8,7,6.4
		C7,6.3,7.1,6.3,7.3,6.3c1.8,0,3.7,0,5.5,0c0.1,0,0.2,0,0.3,0.2c0.2,0.4,0.4,0.8,0.6,1.2c0.4,0.6,1.1,0.9,1.7,0.7
		c0.7-0.2,1.2-0.8,1.1-1.5c0-0.1,0-0.3-0.1-0.4c0,0,0.1,0,0.1,0c0.8,0,1.6,0,2.4,0c0.5,0,0.9,0.3,1,0.8c0.1,0.5-0.3,1-0.7,1.1
		c-0.1,0-0.3,0-0.4,0c-0.2,0-0.3,0.1-0.4,0.3c-0.5,1.8-1.1,3.6-1.6,5.4c-0.2,0.6-0.4,1.2-0.5,1.8c0,0.1-0.1,0.2-0.1,0.4
		c-0.1,0.4-0.4,0.7-0.8,0.7c-1.9,0-3.9,0-5.8,0c-1.6,0-3.3,0-4.9,0c-0.6,0-0.8-0.2-1-0.8c-0.2-0.9-0.5-1.8-0.8-2.7
		C2.6,11.6,2.1,10,1.7,8.4c0-0.1-0.1-0.2-0.3-0.2c-0.2,0-0.3,0-0.5,0C0.4,8.1,0,7.7,0,7.3c0-0.5,0.3-1,0.8-1
		C1.7,6.3,2.6,6.3,3.4,6.3z M14.4,13.7c0-0.6-0.5-1.1-1.1-1.1c-0.6,0-1.1,0.5-1.1,1.1c0,0.6,0.5,1.1,1.1,1.2
		C13.9,14.8,14.4,14.3,14.4,13.7z M7.2,10.6c0,0.6,0.5,1.1,1.1,1.1c0.7,0,1.1-0.5,1.2-1.1c0-0.6-0.5-1.1-1.1-1.1
		C7.7,9.6,7.2,10,7.2,10.6z M8.9,13.7c0,0.6,0.5,1.1,1.1,1.1c0.6,0,1.1-0.5,1.1-1.1c0-0.6-0.5-1.1-1.1-1.1C9.4,12.5,8.9,13,8.9,13.7
		z M7.8,13.7c0-0.6-0.5-1.1-1.1-1.1c-0.6,0-1.1,0.5-1.1,1.1c0,0.6,0.5,1.1,1.1,1.1C7.3,14.8,7.8,14.3,7.8,13.7z M11.7,11.8
		c0.6,0,1.1-0.5,1.1-1.1c0-0.6-0.5-1.1-1.1-1.1c-0.6,0-1.1,0.5-1.1,1.1C10.6,11.3,11.1,11.8,11.7,11.8z M16.1,10.7
		c0-0.6-0.5-1.1-1.1-1.1c-0.6,0-1.1,0.5-1.1,1.1c0,0.6,0.5,1.1,1.1,1.1C15.6,11.8,16.1,11.3,16.1,10.7z M5,11.8
		c0.6,0,1.1-0.5,1.1-1.1C6.1,10,5.6,9.6,5,9.6c-0.6,0-1.1,0.5-1.1,1.1C3.9,11.3,4.4,11.8,5,11.8z"/>
	<path class="st0" d="M5,7.8C4.1,7.8,3.6,6.9,4,6.2C4.5,5.3,5,4.5,5.4,3.6c0.5-1,1.1-2,1.6-3c0.3-0.6,1-0.8,1.5-0.4
		c0.5,0.3,0.7,1,0.4,1.5C8.3,3,7.6,4.2,7,5.4C6.6,6,6.3,6.6,6,7.2C5.8,7.6,5.4,7.8,5,7.8z"/>
	<path class="st0" d="M11.9,0.1c0.5,0,0.8,0.2,1.1,0.6c0.9,1.6,1.7,3.1,2.6,4.7c0.1,0.2,0.3,0.5,0.4,0.7c0.3,0.6,0.2,1.3-0.4,1.6
		C15,8,14.3,7.8,14,7.1c-0.8-1.4-1.5-2.8-2.3-4.1c-0.2-0.4-0.5-0.9-0.7-1.3c-0.3-0.6,0-1.4,0.7-1.6C11.8,0.1,11.9,0.1,11.9,0.1z"/>
</g>
</svg>
