<svg id="Logo" xmlns="http://www.w3.org/2000/svg" viewBox="0 0 634.9 274.8"><defs><style>.cls-1{fill:#8cc65f;}.cls-2{fill:#fff;}.cls-3{fill:#77a952;}.cls-4{fill:#628b42;}.cls-5{fill:#4d6f36;}.cls-6{fill:#74b54f;}.cls-7{fill:#ececec;}</style></defs><title>Book-v2</title><polygon id="Right_page" data-name="Right page" class="cls-1" points="316.8 55.6 513 0 634.9 171.2 316.8 267 316.8 55.6"/><path id="Knife" class="cls-2" d="M520.1,203.5c-4.3-7-8.3-13.3-12.3-20.1-5.4-9.3-10.9-18.7-15.8-28.3s-7.9-16.5-11.2-25c-2.7-6.7-4.3-13.8-6.7-20.6q-6.2-17.7-12.9-35.3c-1.8-4.8-3.8-9.6-6-14.2a6.3,6.3,0,0,0-5.8-3.7,10.9,10.9,0,0,0-9.7,7.3c-2.4,6.6-2.1,13.2-.8,19.9,0.7,3.7,2.1,7.2,3,10.8,3.2,12.3,8.4,23.6,17,33.1a53.8,53.8,0,0,1,11.1,18.5c3.5,10,6.9,21,10.6,32.9,2.3,7.7,4.2,15.5,6.4,23.3l2.9,10.3C500,209.5,509.8,206.4,520.1,203.5Z" transform="translate(-2.9 -2.8)"/><polygon id="Middle_left_page" data-name="Middle left page" class="cls-3" points="1.9 224.8 26.8 185.5 306.1 269.7 1.9 224.8"/><polygon id="Middle_Right_Page" data-name="Middle Right Page" class="cls-4" points="329.2 269.1 608.8 185.6 633.5 224.9 329.2 269.1"/><path id="Bottom_Left_Page" data-name="Bottom Left Page" class="cls-4" d="M3.9,277.5l24-41.6,279.4,41.6H3.9Z" transform="translate(-2.9 -2.8)"/><path id="Bottom_Right_page" data-name="Bottom Right page" class="cls-5" d="M636.9,277.6H333.5v-0.3l279.6-41Z" transform="translate(-2.9 -2.8)"/><polygon id="Left_page" data-name="Left page" class="cls-6" points="316.8 267 0 173.1 115.9 11 316.8 55.6 316.8 267"/><path id="Fork" class="cls-7" d="M126.2,206.4l17.3,5.1,8.2,2.4c0.5-1.5,1.1-2.9,1.5-4.3l3-10.3c1.6-5.4,3.4-10.8,5-16.2l5-17.3c4.9-16.7,10.1-33.4,14.8-50.2,1.2-4.2,3.7-6,7.4-7.2s6.6-2.2,9.8-3.5a7.6,7.6,0,0,0,5.2-6.4c1.3-9.1,2.8-18.2,4.1-27.4,0.1-.9-0.2-2.4-0.7-2.6s-1.8.8-2.2,1.9c-2.3,5.8-4.7,11.6-7,17.3-1.1,2.6-1.7,2.7-4,.9,1.9-6.4,3.9-12.8,5.8-19.3,0.2-.8.1-2.4-0.4-2.7s-2,.4-2.5,1.6c-2.5,5.9-5.2,11.7-7.6,17.6-0.7,1.7-1.6,2.2-3.6,1.2,0.2-1,.4-1.8.7-2.7,1.8-5.9,3.5-11.8,5.3-17.7a2.2,2.2,0,0,0-.2-1.8,1.9,1.9,0,0,0-1.8-.3,3.5,3.5,0,0,0-1.3,1.7c-2.4,5.9-4.9,11.8-7.2,17.8-0.7,1.7-1.9,1.6-3.2,1.3s-1.3-1.6-.9-2.8c2-5.8,3.9-11.6,5.8-17.5a7.3,7.3,0,0,0-.2-2.6c-0.8.5-1.9,0.8-2.4,1.5l-7.2,12c-2.2,3.7-4.7,7.3-6.9,10.9l-1.3,2a6.9,6.9,0,0,0,.2,8.3,93.3,93.3,0,0,0,6.1,7.6,6.9,6.9,0,0,1,1.3,7.9c-7.6,15.7-15.2,31.5-22.8,47.1-6.3,12.9-12.8,25.7-19.2,38.6l-0.6,1.2C128.2,201.8,127.3,204.1,126.2,206.4Z" transform="translate(-2.9 -2.8)"/><path id="Plate_Shape" data-name="Plate Shape" class="cls-7" d="M319.7,232.7c-16-5.3-30.1-12.2-44.9-20.6A194.8,194.8,0,0,1,244.4,191c-11.9-10.1-22.7-21.2-29.1-35.8-3.2-7.4-4.8-15.1-2.9-23.1,2.3-10,8.9-16.7,17.6-21.6s19.9-7.7,30.6-9.1a172.8,172.8,0,0,1,39.7.1c6.5,0.7,19.4,3.1,19.4,3.1V232.7Z" transform="translate(-2.9 -2.8)"/><path id="Plate_ring" data-name="Plate ring" class="cls-6" d="M319.7,214.8a225,225,0,0,1-34.6-16.3c-15.6-9.2-30.1-19.8-40.6-34.9-4.4-6.4-7.7-13.2-7.9-21.2s3.7-15.2,10.4-20.2,15.7-7.8,24.5-9.2a134.2,134.2,0,0,1,42.7.8l5.4,1v3.4s-6.3-1.4-9-1.7c-9.8-1.1-19.5-1.6-29.4-.5s-17.4,2.9-25.1,7.4c-9.9,5.8-14,15.9-10.8,27,2.4,8.5,7.5,15.4,13.5,21.6a131.5,131.5,0,0,0,35.5,26c8,4.1,17.1,7.7,25.3,11.4v5.5Z" transform="translate(-2.9 -2.8)"/><path id="Plate_Shape-2" data-name="Plate Shape" class="cls-2" d="M319.7,232.7c16-5.3,30.1-12.2,44.9-20.6A194.8,194.8,0,0,0,395,191c11.9-10.1,22.7-21.2,29.1-35.8,3.2-7.4,4.8-15.1,2.9-23.1-2.3-10-8.9-16.7-17.6-21.6s-19.9-7.7-30.6-9.1a172.8,172.8,0,0,0-39.7.1c-6.5.7-19.4,3.1-19.4,3.1V232.7Z" transform="translate(-2.9 -2.8)"/><path id="Plate_ring-2" data-name="Plate ring" class="cls-1" d="M319.7,214.8a225,225,0,0,0,34.6-16.3c15.6-9.2,30.1-19.8,40.6-34.9,4.4-6.4,7.7-13.2,7.9-21.2s-3.7-15.2-10.4-20.2-15.7-7.8-24.5-9.2a134.2,134.2,0,0,0-42.7.8l-5.4,1v3.4s6.3-1.4,9-1.7c9.8-1.1,19.5-1.6,29.4-.5s17.4,2.9,25.1,7.4c9.9,5.8,14,15.9,10.8,27-2.4,8.5-7.5,15.4-13.5,21.6A131.5,131.5,0,0,1,345,198c-8,4.1-17.1,7.7-25.3,11.4v5.5Z" transform="translate(-2.9 -2.8)"/></svg>