<svg xmlns="http://www.w3.org/2000/svg" viewBox="0 0 278 180"><defs><style>.cls-1{isolation:isolate;}.cls-2{fill:#323232;}.cls-3{fill:#766f6a;}</style></defs><title>headerHexa</title><g id="Fill" class="cls-1"><g id="Fill-2" data-name="Fill"><polygon class="cls-2" points="208.5 -63.99 69.5 -63.99 0 56.5 69.5 176.99 208.5 176.99 278 56.5 208.5 -63.99"/></g></g><g id="Dots" class="cls-1"><g id="Dots-2" data-name="Dots"><path class="cls-3" d="M200.54-50.19h-0.05a1,1,0,0,0-.56.17,1,1,0,0,0-.37.13,1,1,0,0,0-.37,1.37l0,0a1,1,0,0,0,.87.5,1,1,0,0,0,.5-0.13l0.13-.09a1,1,0,0,0,.69-0.48l-0.87-1.5h0Zm-4.05,0h-0.05a1,1,0,0,0-1,1,1,1,0,0,0,1,1h0.05a1,1,0,0,0,1-1,1,1,0,0,0-1-1h0Zm-4.05,0h-0.05a1,1,0,0,0-1,1,1,1,0,0,0,1,1h0.05a1,1,0,0,0,1-1,1,1,0,0,0-1-1h0Zm-4.05,0h-0.06a1,1,0,0,0-1,1,1,1,0,0,0,1,1h0.06a1,1,0,0,0,1-1,1,1,0,0,0-1-1h0Zm-4.06,0h-0.05a1,1,0,0,0-1,1,1,1,0,0,0,1,1h0.05a1,1,0,0,0,1-1,1,1,0,0,0-1-1h0Zm-4.05,0h-0.05a1,1,0,0,0-1,1,1,1,0,0,0,1,1h0.05a1,1,0,0,0,1-1,1,1,0,0,0-1-1h0Zm-4.05,0h-0.05a1,1,0,0,0-1,1,1,1,0,0,0,1,1h0.05a1,1,0,0,0,1-1,1,1,0,0,0-1-1h0Zm-4.05,0H172.1a1,1,0,0,0-1,1,1,1,0,0,0,1,1h0.06a1,1,0,0,0,1-1,1,1,0,0,0-1-1h0Zm-4.06,0H168a1,1,0,0,0-1,1,1,1,0,0,0,1,1h0.05a1,1,0,0,0,1-1,1,1,0,0,0-1-1h0Zm-4.05,0H164a1,1,0,0,0-1,1,1,1,0,0,0,1,1H164a1,1,0,0,0,1-1,1,1,0,0,0-1-1h0Zm-4.05,0h-0.05a1,1,0,0,0-1,1,1,1,0,0,0,1,1H160a1,1,0,0,0,1-1,1,1,0,0,0-1-1h0Zm-4.05,0h-0.06a1,1,0,0,0-1,1,1,1,0,0,0,1,1h0.06a1,1,0,0,0,1-1,1,1,0,0,0-1-1h0Zm-4.06,0h-0.05a1,1,0,0,0-1,1,1,1,0,0,0,1,1h0.05a1,1,0,0,0,1-1,1,1,0,0,0-1-1h0Zm-4.05,0h-0.05a1,1,0,0,0-1,1,1,1,0,0,0,1,1h0.05a1,1,0,0,0,1-1,1,1,0,0,0-1-1h0Zm-4.05,0h-0.05a1,1,0,0,0-1,1,1,1,0,0,0,1,1h0.05a1,1,0,0,0,1-1,1,1,0,0,0-1-1h0Zm-4.05,0h-0.06a1,1,0,0,0-1,1,1,1,0,0,0,1,1h0.06a1,1,0,0,0,1-1,1,1,0,0,0-1-1h0Zm-4.06,0h-0.05a1,1,0,0,0-1,1,1,1,0,0,0,1,1h0.05a1,1,0,0,0,1-1,1,1,0,0,0-1-1h0Zm-4.05,0h-0.05a1,1,0,0,0-1,1,1,1,0,0,0,1,1h0.05a1,1,0,0,0,1-1,1,1,0,0,0-1-1h0Zm-4.05,0H127.5a1,1,0,0,0-1,1,1,1,0,0,0,1,1h0.05a1,1,0,0,0,1-1,1,1,0,0,0-1-1h0Zm-4.05,0h-0.06a1,1,0,0,0-1,1,1,1,0,0,0,1,1h0.06a1,1,0,0,0,1-1,1,1,0,0,0-1-1h0Zm-4.06,0h-0.05a1,1,0,0,0-1,1,1,1,0,0,0,1,1h0.05a1,1,0,0,0,1-1,1,1,0,0,0-1-1h0Zm-4.05,0h-0.05a1,1,0,0,0-1,1,1,1,0,0,0,1,1h0.05a1,1,0,0,0,1-1,1,1,0,0,0-1-1h0Zm-4.05,0h-0.05a1,1,0,0,0-1,1,1,1,0,0,0,1,1h0.05a1,1,0,0,0,1-1,1,1,0,0,0-1-1h0Zm-4.05,0h-0.06a1,1,0,0,0-1,1,1,1,0,0,0,1,1h0.06a1,1,0,0,0,1-1,1,1,0,0,0-1-1h0Zm-4.06,0h-0.05a1,1,0,0,0-1,1,1,1,0,0,0,1,1h0.05a1,1,0,0,0,1-1,1,1,0,0,0-1-1h0Zm-4.05,0H99.11a1,1,0,0,0-1,1,1,1,0,0,0,1,1h0.05a1,1,0,0,0,1-1,1,1,0,0,0-1-1h0Zm-4.05,0H95.06a1,1,0,0,0-1,1,1,1,0,0,0,1,1h0.05a1,1,0,0,0,1-1,1,1,0,0,0-1-1h0Zm-4.05,0H91a1,1,0,0,0-1,1,1,1,0,0,0,1,1h0.05a1,1,0,0,0,1-1,1,1,0,0,0-1-1h0Zm-4.06,0H86.95a1,1,0,0,0-1,1,1,1,0,0,0,1,1H87a1,1,0,0,0,1-1,1,1,0,0,0-1-1h0Zm-4.05,0H82.89a1,1,0,0,0-1,1,1,1,0,0,0,1,1h0.06a1,1,0,0,0,1-1,1,1,0,0,0-1-1h0Zm-4.06,0H78.84a1,1,0,0,0-1,1,1,1,0,0,0,1,1h0.05a1,1,0,0,0,1-1,1,1,0,0,0-1-1h0ZM77-48.42a1,1,0,0,0-.87.5l0,0a1,1,0,0,0,.37,1.37,1,1,0,0,0,.5.13,1,1,0,0,0,.87-0.5l0,0a1,1,0,0,0-.37-1.37,1,1,0,0,0-.5-0.13h0Zm-2,3.51a1,1,0,0,0-.87.5l0,0A1,1,0,0,0,74.46-43a1,1,0,0,0,.5.13,1,1,0,0,0,.87-0.5l0,0a1,1,0,0,0-.37-1.37,1,1,0,0,0-.5-0.13h0Zm-2,3.51a1,1,0,0,0-.87.5l0,0.05a1,1,0,0,0,.37,1.36,1,1,0,0,0,.5.13,1,1,0,0,0,.87-0.5l0,0a1,1,0,0,0-.37-1.37,1,1,0,0,0-.5-0.13h0Zm-2,3.51a1,1,0,0,0-.87.5l0,0.05A1,1,0,0,0,70.41-36a1,1,0,0,0,.5.13,1,1,0,0,0,.87-0.5l0,0a1,1,0,0,0-.37-1.37,1,1,0,0,0-.5-0.13h0Zm-2,3.51a1,1,0,0,0-.86.5l0,0.06a1,1,0,0,0,.37,1.36,1,1,0,0,0,.5.13,1,1,0,0,0,.87-0.5l0,0a1,1,0,0,0-.37-1.37,1,1,0,0,0-.5-0.13h0Zm-2,3.51a1,1,0,0,0-.86.5l0,0.06a1,1,0,0,0,.37,1.36,1,1,0,0,0,.5.13,1,1,0,0,0,.87-0.5l0,0a1,1,0,0,0-.37-1.37,1,1,0,0,0-.5-0.13h0Zm-2,3.51a1,1,0,0,0-.86.49l0,0.06a1,1,0,0,0,.37,1.36,1,1,0,0,0,.5.13,1,1,0,0,0,.87-0.5l0,0a1,1,0,0,0-.37-1.37,1,1,0,0,0-.5-0.13h0Zm-2,3.51a1,1,0,0,0-.87.5h0l0,0.05a1,1,0,0,0,.37,1.36,1,1,0,0,0,.5.13,1,1,0,0,0,.87-0.5l0,0a1,1,0,0,0-.37-1.37,1,1,0,0,0-.5-0.13h0Zm-2,3.51a1,1,0,0,0-.87.5h0l0,0a1,1,0,0,0,.37,1.37,1,1,0,0,0,.5.13,1,1,0,0,0,.87-0.5l0,0a1,1,0,0,0-.37-1.37,1,1,0,0,0-.5-0.13h0Zm-2,3.51a1,1,0,0,0-.87.5v0h0l0,0a1,1,0,0,0,.37,1.37,1,1,0,0,0,.5.13,1,1,0,0,0,.87-0.5l0,0a1,1,0,0,0-.37-1.37,1,1,0,0,0-.5-0.13h0Zm-2,3.51a1,1,0,0,0-.87.5l0,0v0a1,1,0,0,0,.37,1.37,1,1,0,0,0,.5.13,1,1,0,0,0,.87-0.5l0,0a1,1,0,0,0-.37-1.37,1,1,0,0,0-.5-0.13h0Zm-2,3.51a1,1,0,0,0-.86.5l0,0h0a1,1,0,0,0,.37,1.37,1,1,0,0,0,.5.13,1,1,0,0,0,.87-0.5l0,0a1,1,0,0,0-.37-1.37,1,1,0,0,0-.5-0.13h0Zm-2,3.51a1,1,0,0,0-.86.5v0l0,0a1,1,0,0,0,.37,1.37,1,1,0,0,0,.5.13,1,1,0,0,0,.87-0.5l0,0a1,1,0,0,0-.37-1.37,1,1,0,0,0-.5-0.13h0Zm-2,3.51a1,1,0,0,0-.87.5l0,0a1,1,0,0,0,.37,1.37,1,1,0,0,0,.5.13,1,1,0,0,0,.87-0.5l0,0a1,1,0,0,0-.37-1.37,1,1,0,0,0-.5-0.13h0Zm-2,3.51a1,1,0,0,0-.87.5l0,0a1,1,0,1,0,1.73,1l0,0a1,1,0,0,0-.87-1.5h0Zm-2,3.51a1,1,0,0,0-.87.5l0,0a1,1,0,1,0,1.73,1l0,0a1,1,0,0,0-.87-1.5h0Zm-2,3.51a1,1,0,0,0-.87.5l0,0a1,1,0,1,0,1.73,1l0,0a1,1,0,0,0-.87-1.5h0Zm-2,3.51a1,1,0,0,0-.87.5l0,0a1,1,0,1,0,1.73,1l0,0a1,1,0,0,0-.87-1.5h0Zm-2,3.51a1,1,0,0,0-.87.5l0,0a1,1,0,1,0,1.73,1l0,0a1,1,0,0,0-.87-1.5h0Zm-2,3.51a1,1,0,0,0-.87.5v0h0v0a1,1,0,0,0,1.73,1l0,0a1,1,0,0,0-.87-1.5h0Zm-2,3.51a1,1,0,0,0-.87.5l0,0.05a1,1,0,0,0,1.73,1l0,0a1,1,0,0,0-.87-1.5h0Zm-2,3.51a1,1,0,0,0-.87.5l0,0.05a1,1,0,0,0,1.73,1l0,0a1,1,0,0,0-.87-1.5h0Zm-2,3.51a1,1,0,0,0-.87.5l0,0.06a1,1,0,0,0,1.74,1l0,0a1,1,0,0,0-.87-1.5h0Zm-2,3.51a1,1,0,0,0-.86.5l0,0.06a1,1,0,0,0,1.74,1l0,0a1,1,0,0,0-.87-1.5h0Zm-2,3.51a1,1,0,0,0-.87.5h0l0,0a1,1,0,0,0,1.74,1l0,0a1,1,0,0,0-.87-1.5h0Zm-2,3.51a1,1,0,0,0-.87.5h0l0,0a1,1,0,0,0,1.74,1l0,0a1,1,0,0,0-.87-1.5h0Zm-2,3.51a1,1,0,0,0-.87.5h0l0,0.06a1,1,0,0,0,1.74,1l0,0a1,1,0,0,0-.87-1.5h0Zm-2,3.51a1,1,0,0,0-.87.5l0,0.06a1,1,0,0,0,1.74,1l0,0a1,1,0,0,0-.87-1.5h0Zm-2,3.51a1,1,0,0,0-.87.5v0.05a1,1,0,1,0,1.73,1l0,0a1,1,0,0,0-.87-1.5h0Zm-2,3.51a1,1,0,0,0-.87.5v0l0,0a1,1,0,1,0,1.73,1l0,0a1,1,0,0,0-.87-1.5h0ZM17.33,56a1,1,0,0,0-.87,1.5v0l0,0a1,1,0,0,0,1.73-1l0,0a1,1,0,0,0-.87-0.5h0Zm2,3.51a1,1,0,0,0-.87,1.5v0l0,0a1,1,0,0,0,1.73-1l0,0a1,1,0,0,0-.87-0.5h0Zm2,3.51a1,1,0,0,0-.87,1.49l0,0.06a1,1,0,0,0,1.73-1l0,0a1,1,0,0,0-.87-0.5h0Zm2,3.51A1,1,0,0,0,22.54,68l0,0.06a1,1,0,0,0,1.73-1l0,0a1,1,0,0,0-.87-0.5h0Zm2,3.51a1,1,0,0,0-.87,1.49l0,0.06a1,1,0,0,0,1.73-1l0,0a1,1,0,0,0-.87-0.5h0Zm2,3.51A1,1,0,0,0,26.6,75l0,0.05a1,1,0,0,0,1.73-1l0,0a1,1,0,0,0-.87-0.5h0Zm2,3.51a1,1,0,0,0-.87,1.5l0,0.05a1,1,0,0,0,1.73-1l0,0a1,1,0,0,0-.87-0.5h0Zm2,3.51a1,1,0,0,0-.87,1.5l0,0h0a1,1,0,1,0,1.73-1l0,0a1,1,0,0,0-.87-0.5h0Zm2,3.51a1,1,0,0,0-.87,1.5l0,0a1,1,0,1,0,1.73-1l0,0a1,1,0,0,0-.87-0.5h0Zm2,3.51a1,1,0,0,0-.87,1.5l0,0a1,1,0,1,0,1.73-1l0,0a1,1,0,0,0-.87-0.5h0Zm2,3.51a1,1,0,0,0-.87,1.5l0,0a1,1,0,1,0,1.73-1l0,0a1,1,0,0,0-.87-0.5h0Zm2,3.51a1,1,0,0,0-.87,1.49l0,0,0,0a1,1,0,1,0,1.73-1l0,0a1,1,0,0,0-.87-0.5h0Zm2,3.51a1,1,0,0,0-.87,1.5v0l0,0a1,1,0,1,0,1.73-1l0,0a1,1,0,0,0-.87-0.5h0Zm2,3.51a1,1,0,0,0-.87,1.5h0l0,0a1,1,0,1,0,1.73-1l0,0a1,1,0,0,0-.87-0.5h0Zm2,3.51a1,1,0,0,0-.87,1.5h0l0,0a1,1,0,1,0,1.73-1l0,0a1,1,0,0,0-.87-0.5h0Zm2,3.51a1,1,0,0,0-.87,1.5l0,0a1,1,0,1,0,1.73-1l0,0a1,1,0,0,0-.87-0.5h0Zm2,3.51a1,1,0,0,0-.87,1.5l0,0a1,1,0,0,0,1.73-1l0,0a1,1,0,0,0-.87-0.5h0Zm2,3.51a1,1,0,0,0-.87,1.5h0l0,0a1,1,0,0,0,1.73-1l0,0a1,1,0,0,0-.87-0.5h0Zm2,3.51a1,1,0,0,0-.87,1.5v0l0,0a1,1,0,0,0,1.73-1l0,0a1,1,0,0,0-.87-0.5h0Zm2,3.51a1,1,0,0,0-.87,1.5v0l0,0a1,1,0,0,0,1.73-1l0,0a1,1,0,0,0-.87-0.5h0Zm2,3.51a1,1,0,0,0-.87,1.5v0l0,0a1,1,0,0,0,1.73-1l0,0a1,1,0,0,0-.87-0.5h0Zm2,3.51a1,1,0,0,0-.87,1.49l0,0.06a1,1,0,0,0,1.73-1l0,0a1,1,0,0,0-.87-0.5h0Zm2,3.51a1,1,0,0,0-.87,1.49l0,0.06a1,1,0,0,0,1.73-1l0,0a1,1,0,0,0-.87-0.5h0Zm2,3.51a1,1,0,0,0-.87,1.5l0,0.06a1,1,0,0,0,1.73-1l0,0a1,1,0,0,0-.87-0.5h0Zm2,3.51a1,1,0,0,0-.87,1.5l0,0.05a1,1,0,0,0,1.73-1l0,0a1,1,0,0,0-.87-0.5h0Zm2,3.51a1,1,0,0,0-.87,1.5l0,0a1,1,0,0,0,1.73-1l0,0a1,1,0,0,0-.87-0.5h0Zm2,3.51a1,1,0,0,0-.87,1.5l0,0a1,1,0,1,0,1.73-1l0,0a1,1,0,0,0-.87-0.5h0Zm2,3.51a1,1,0,0,0-.87,1.5l0,0a1,1,0,1,0,1.73-1l0,0a1,1,0,0,0-.87-0.5h0Zm2,3.51a1,1,0,0,0-.87,1.49l0,0v0a1,1,0,1,0,1.73-1l0,0a1,1,0,0,0-.87-0.5h0Zm2,3.51a1,1,0,0,0-.87,1.49l0,0v0a1,1,0,1,0,1.73-1l0,0a1,1,0,0,0-.87-0.5h0Zm2,3.51a1,1,0,0,0-.87,1.5v0l0,0a1,1,0,0,0,.28.31h1.18a1,1,0,0,0,.28-1.31l0,0a1,1,0,0,0-.87-0.5h0Zm3-.15H81.1a1,1,0,1,0,0,2h0.06a1,1,0,0,0,0-2h0Zm4.05,0H85.16a1,1,0,1,0,0,2h0.05a1,1,0,0,0,0-2h0Zm4.06,0H89.21a1,1,0,1,0,0,2h0.05a1,1,0,0,0,0-2h0Zm4.05,0H93.27a1,1,0,0,0,0,2h0.05a1,1,0,0,0,0-2h0Zm4.05,0H97.32a1,1,0,0,0,0,2h0.05a1,1,0,1,0,0-2h0Zm4.05,0h-0.05a1,1,0,1,0,0,2h0.05a1,1,0,0,0,0-2h0Zm4.06,0h-0.06a1,1,0,1,0,0,2h0.06a1,1,0,0,0,0-2h0Zm4.05,0h-0.05a1,1,0,1,0,0,2h0.05a1,1,0,0,0,0-2h0Zm4.05,0h-0.05a1,1,0,1,0,0,2h0.05a1,1,0,0,0,0-2h0Zm4.05,0H117.6a1,1,0,1,0,0,2h0.05a1,1,0,0,0,0-2h0Zm4.06,0h-0.06a1,1,0,0,0,0,2h0.06a1,1,0,0,0,0-2h0Zm4.05,0h-0.05a1,1,0,0,0,0,2h0.05a1,1,0,0,0,0-2h0Zm4.05,0h-0.05a1,1,0,0,0,0,2h0.05a1,1,0,0,0,0-2h0Zm4.05,0h-0.05a1,1,0,0,0,0,2h0.05a1,1,0,0,0,0-2h0Zm4.06,0h-0.06a1,1,0,1,0,0,2h0.06a1,1,0,0,0,0-2h0Zm4.05,0h-0.05a1,1,0,0,0,0,2H142a1,1,0,0,0,0-2h0Zm4.05,0H146a1,1,0,1,0,0,2H146a1,1,0,0,0,0-2h0Zm4.05,0H150a1,1,0,0,0,0,2h0.05a1,1,0,1,0,0-2h0Zm4.06,0h-0.06a1,1,0,0,0,0,2h0.06a1,1,0,0,0,0-2h0Zm4.05,0h-0.05a1,1,0,1,0,0,2h0.05a1,1,0,1,0,0-2h0Zm4.05,0H162.2a1,1,0,0,0,0,2h0.05a1,1,0,0,0,0-2h0Zm4.05,0h-0.05a1,1,0,0,0,0,2h0.05a1,1,0,0,0,0-2h0Zm4.06,0h-0.06a1,1,0,1,0,0,2h0.06a1,1,0,1,0,0-2h0Zm4.05,0h-0.05a1,1,0,0,0,0,2h0.05a1,1,0,0,0,0-2h0Zm4.05,0h-0.05a1,1,0,0,0,0,2h0.05a1,1,0,0,0,0-2h0Zm4.05,0h-0.05a1,1,0,0,0,0,2h0.05a1,1,0,1,0,0-2h0Zm4.06,0h-0.06a1,1,0,0,0,0,2h0.06a1,1,0,0,0,0-2h0Zm4.05,0h-0.05a1,1,0,0,0,0,2h0.05a1,1,0,0,0,0-2h0Zm4.05,0h-0.05a1,1,0,0,0,0,2h0.05a1,1,0,1,0,0-2h0Zm4.05,0H198.7a1,1,0,0,0,0,2h0.05a1,1,0,0,0,0-2h0Zm2.06-1.46a1,1,0,0,0-.87.5l0,0a1,1,0,1,0,1.73,1v0l0,0a1,1,0,0,0-.87-1.49h0Zm2-3.51a1,1,0,0,0-.87.5l0,0a1,1,0,1,0,1.73,1l0,0a1,1,0,0,0-.87-1.5h0Zm2-3.51a1,1,0,0,0-.87.5l0,0a1,1,0,1,0,1.73,1l0,0a1,1,0,0,0-.87-1.5h0Zm2-3.51a1,1,0,0,0-.87.5l0,0a1,1,0,0,0,1.73,1l0-.05a1,1,0,0,0-.87-1.5h0Zm2-3.51a1,1,0,0,0-.87.5l0,0a1,1,0,0,0,1.73,1l0-.05a1,1,0,0,0-.87-1.5h0Zm2-3.51a1,1,0,0,0-.87.5l0,0a1,1,0,0,0,1.73,1l0-.06a1,1,0,0,0-.87-1.49h0Zm2-3.51a1,1,0,0,0-.87.5l0,0a1,1,0,0,0,1.73,1l0,0,0,0a1,1,0,0,0-.87-1.5h0Zm2-3.51a1,1,0,0,0-.87.5l0,0a1,1,0,0,0,1.73,1l0,0v0a1,1,0,0,0-.87-1.5h0Zm2-3.51a1,1,0,0,0-.87.5l0,0a1,1,0,0,0,1.73,1l0,0h0a1,1,0,0,0-.87-1.5h0Zm2-3.51a1,1,0,0,0-.87.5l0,0a1,1,0,1,0,1.73,1l0,0a1,1,0,0,0-.87-1.5h0Zm2-3.51a1,1,0,0,0-.87.5l0,0a1,1,0,1,0,1.73,1l0,0a1,1,0,0,0-.87-1.5h0Zm2-3.51a1,1,0,0,0-.87.5l0,0a1,1,0,1,0,1.73,1l0,0h0a1,1,0,0,0-.87-1.5h0Zm2-3.51a1,1,0,0,0-.87.5l0,0a1,1,0,1,0,1.73,1l0,0v0a1,1,0,0,0-.87-1.5h0Zm2-3.51a1,1,0,0,0-.87.5l0,0a1,1,0,1,0,1.73,1v0l0,0a1,1,0,0,0-.87-1.49h0Zm2-3.51a1,1,0,0,0-.87.5l0,0a1,1,0,1,0,1.73,1v0l0,0a1,1,0,0,0-.87-1.49h0Zm2-3.51a1,1,0,0,0-.87.5l0,0a1,1,0,1,0,1.73,1l0,0a1,1,0,0,0-.87-1.5h0Zm2-3.51a1,1,0,0,0-.87.5l0,0a1,1,0,0,0,1.73,1l0,0a1,1,0,0,0-.87-1.5h0Zm2-3.51a1,1,0,0,0-.87.5l0,0a1,1,0,0,0,1.73,1l0-.05a1,1,0,0,0-.87-1.5h0Zm2-3.51a1,1,0,0,0-.87.5l0,0a1,1,0,0,0,1.73,1l0-.06a1,1,0,0,0-.87-1.49h0Zm2-3.51a1,1,0,0,0-.87.5l0,0a1,1,0,0,0,1.73,1v0l0,0a1,1,0,0,0-.87-1.5h0Zm2-3.51a1,1,0,0,0-.87.5l0,0a1,1,0,0,0,1.73,1l0,0v0a1,1,0,0,0-.87-1.5h0Zm2-3.51a1,1,0,0,0-.87.5l0,0a1,1,0,0,0,1.73,1l0,0v0a1,1,0,0,0-.87-1.5h0Zm2-3.51a1,1,0,0,0-.87.5l0,0a1,1,0,1,0,1.73,1l0,0a1,1,0,0,0-.87-1.5h0Zm2-3.51a1,1,0,0,0-.87.5l0,0a1,1,0,1,0,1.73,1l0,0a1,1,0,0,0-.87-1.5h0Zm2-3.51a1,1,0,0,0-.87.5l0,0a1,1,0,1,0,1.73,1l0,0h0a1,1,0,0,0-.87-1.5h0Zm2-3.51a1,1,0,0,0-.87.5l0,0a1,1,0,1,0,1.73,1l0,0h0a1,1,0,0,0-.87-1.5h0Zm2-3.51a1,1,0,0,0-.87.5l0,0a1,1,0,1,0,1.73,1l0,0v0a1,1,0,0,0-.87-1.49h0Zm2-3.51a1,1,0,0,0-.87.5l0,0a1,1,0,1,0,1.73,1v0l0,0a1,1,0,0,0-.87-1.49h0Zm2-3.51a1,1,0,0,0-.87.5l0,0a1,1,0,1,0,1.73,1l0,0a1,1,0,0,0-.87-1.5h0Zm2-3.51a1,1,0,0,0-.87.5l0,0a1,1,0,1,0,1.73,1h0l0,0a1,1,0,0,0-.87-1.5h0Zm1.27-2.51a1,1,0,0,0-.87,1.5l0,0a1,1,0,1,0,1.73-1l0,0a1,1,0,0,0-.87-0.5h0Zm-2-3.51a1,1,0,0,0-.87,1.5l0,0a1,1,0,1,0,1.73-1l0,0a1,1,0,0,0-.87-0.5h0Zm-2-3.51a1,1,0,0,0-.87,1.5l0,0a1,1,0,1,0,1.73-1v0l0,0a1,1,0,0,0-.86-0.49h0Zm-2-3.51a1,1,0,0,0-.87,1.5l0,0a1,1,0,0,0,1.73-1v0l0,0a1,1,0,0,0-.86-0.49h0Zm-2-3.51a1,1,0,0,0-.87,1.5l0,0a1,1,0,0,0,1.73-1l0,0v0a1,1,0,0,0-.86-0.5h0Zm-2-3.51a1,1,0,0,0-.87,1.5l0,0a1,1,0,0,0,1.74-1l0-.06a1,1,0,0,0-.87-0.5h0Zm-2-3.51a1,1,0,0,0-.87,1.5l0,0a1,1,0,0,0,1.73-1l0-.05a1,1,0,0,0-.87-0.5h0Zm-2-3.51a1,1,0,0,0-.87,1.5l0,0a1,1,0,0,0,1.73-1l0,0h0a1,1,0,0,0-.87-0.5h0Zm-2-3.51a1,1,0,0,0-.87,1.5l0,0a1,1,0,0,0,1.74-1l0,0h0a1,1,0,0,0-.87-0.5h0Zm-2-3.51a1,1,0,0,0-.87,1.5l0,0a1,1,0,0,0,1.74-1l0,0v0a1,1,0,0,0-.87-0.5h0Zm-2-3.51a1,1,0,0,0-.87,1.5l0,0a1,1,0,0,0,1.74-1v0l0,0a1,1,0,0,0-.87-0.5h0Zm-2-3.51a1,1,0,0,0-.87,1.5l0,0a1,1,0,0,0,1.73-1h0l0,0a1,1,0,0,0-.87-0.5h0Zm-2-3.51a1,1,0,0,0-.87,1.5l0,0a1,1,0,0,0,1.73-1v0h0v0a1,1,0,0,0-.87-0.5h0Zm-2-3.51a1,1,0,0,0-.87,1.5l0,0a1,1,0,1,0,1.73-1l0,0a1,1,0,0,0-.87-0.5h0Zm-2-3.51a1,1,0,0,0-.87,1.5l0,0a1,1,0,1,0,1.73-1l0,0a1,1,0,0,0-.87-0.5h0Zm-2-3.51a1,1,0,0,0-.87,1.5l0,0a1,1,0,1,0,1.73-1v0l0,0a1,1,0,0,0-.86-0.49h0Zm-2-3.51a1,1,0,0,0-.5.13,1,1,0,0,0-.37,1.37l0,0a1,1,0,0,0,.87.5,1,1,0,0,0,.5-0.13,1,1,0,0,0,.37-1.37v0l0,0a1,1,0,0,0-.86-0.49h0Zm-2-3.51a1,1,0,0,0-.5.13,1,1,0,0,0-.37,1.37l0,0a1,1,0,0,0,.87.5,1,1,0,0,0,.5-0.13,1,1,0,0,0,.37-1.37l0,0v0a1,1,0,0,0-.86-0.49h0Zm-2-3.51a1,1,0,0,0-.5.13,1,1,0,0,0-.37,1.37l0,0a1,1,0,0,0,.87.5A1,1,0,0,0,224.9-6a1,1,0,0,0,.37-1.36l0-.06a1,1,0,0,0-.86-0.5h0Zm-2-3.51a1,1,0,0,0-.5.13,1,1,0,0,0-.37,1.37l0,0a1,1,0,0,0,.87.5,1,1,0,0,0,.5-0.13,1,1,0,0,0,.37-1.36l0-.05a1,1,0,0,0-.87-0.5h0Zm-2-3.51a1,1,0,0,0-.5.13,1,1,0,0,0-.37,1.37l0,0a1,1,0,0,0,.87.5,1,1,0,0,0,.5-0.13,1,1,0,0,0,.37-1.36l0,0a1,1,0,0,0-.87-0.5h0Zm-2-3.51a1,1,0,0,0-.5.13,1,1,0,0,0-.37,1.37l0,0a1,1,0,0,0,.87.5,1,1,0,0,0,.5-0.13,1,1,0,0,0,.37-1.36l0,0h0a1,1,0,0,0-.87-0.5h0Zm-2-3.51a1,1,0,0,0-.5.13,1,1,0,0,0-.37,1.37l0,0a1,1,0,0,0,.87.5,1,1,0,0,0,.5-0.13,1,1,0,0,0,.37-1.36l0,0v0a1,1,0,0,0-.87-0.5h0Zm-2-3.51a1,1,0,0,0-.5.13,1,1,0,0,0-.37,1.37l0,0a1,1,0,0,0,.87.5,1,1,0,0,0,.5-0.13,1,1,0,0,0,.37-1.36l0,0v0a1,1,0,0,0-.87-0.5h0Zm-2-3.51a1,1,0,0,0-.5.13,1,1,0,0,0-.37,1.37l0,0a1,1,0,0,0,.87.5,1,1,0,0,0,.5-0.13,1,1,0,0,0,.37-1.36v0l0,0a1,1,0,0,0-.87-0.5h0Zm-2-3.51a1,1,0,0,0-.5.13,1,1,0,0,0-.37,1.37l0,0a1,1,0,0,0,.87.5,1,1,0,0,0,.5-0.13,1,1,0,0,0,.37-1.36l0,0h0a1,1,0,0,0-.87-0.5h0Zm-2-3.51a1,1,0,0,0-.5.13,1,1,0,0,0-.37,1.37l0,0a1,1,0,0,0,.87.5,1,1,0,0,0,.5-0.13,1,1,0,0,0,.37-1.37l0,0a1,1,0,0,0-.87-0.5h0Zm-2-3.51a1,1,0,0,0-.5.13,1,1,0,0,0-.37,1.37l0,0a1,1,0,0,0,.87.5,1,1,0,0,0,.5-0.13,1,1,0,0,0,.37-1.37l0,0a1,1,0,0,0-.87-0.5h0Zm-2-3.51a1,1,0,0,0-.5.13,1,1,0,0,0-.37,1.37l0,0a1,1,0,0,0,.87.5,1,1,0,0,0,.5-0.13,1,1,0,0,0,.37-1.37v0l0,0a1,1,0,0,0-.86-0.49h0Zm-2-3.51a1,1,0,0,0-.5.13,1,1,0,0,0-.37,1.37l0,0a1,1,0,0,0,.87.5,1,1,0,0,0,.5-0.13A1,1,0,0,0,203-46v0l0,0a1,1,0,0,0-.86-0.49h0Z"/></g></g></svg>