<svg id="Layer_1_copy" data-name="Layer 1 copy" xmlns="http://www.w3.org/2000/svg" viewBox="0 0 60 60"><defs><style>.cls-1{opacity:0.1;}.cls-2{fill:none;}</style></defs><title>diagonal-stripes</title><g class="cls-1"><polygon class="cls-2" points="40.7 0 0 40.7 0 46 46 0 40.7 0"/><polygon class="cls-2" points="34 0 0 34 0 39.3 39.3 0 34 0"/><polygon class="cls-2" points="47.4 0 0 47.4 0 52.6 52.6 0 47.4 0"/><polygon class="cls-2" points="54 0 0 54 0 59.3 59.3 0 54 0"/><polygon class="cls-2" points="0.7 0 0 0.7 0 6 6 0 0.7 0"/><polygon class="cls-2" points="7.4 0 0 7.4 0 12.6 12.6 0 7.4 0"/><polygon class="cls-2" points="14 0 0 14 0 19.3 19.3 0 14 0"/><polygon class="cls-2" points="27.4 0 0 27.4 0 32.6 32.6 0 27.4 0"/><polygon class="cls-2" points="26 60 60 26 60 20.7 20.7 60 26 60"/><polygon class="cls-2" points="19.3 60 60 19.3 60 14 14 60 19.3 60"/><polygon class="cls-2" points="59.3 60 60 59.3 60 54 54 60 59.3 60"/><polygon class="cls-2" points="60 6 60 0.7 0.7 60 6 60 60 6"/><polygon class="cls-2" points="12.6 60 60 12.6 60 7.4 7.4 60 12.6 60"/><polygon class="cls-2" points="52.6 60 60 52.6 60 47.4 47.4 60 52.6 60"/><polygon class="cls-2" points="32.6 60 60 32.6 60 27.4 27.4 60 32.6 60"/><polygon class="cls-2" points="46 60 60 46 60 40.7 40.7 60 46 60"/><polygon class="cls-2" points="39.3 60 60 39.3 60 34 34 60 39.3 60"/><polygon class="cls-2" points="20.7 0 0 20.7 0 26 26 0 20.7 0"/><polygon points="0 0 0 0.7 0.7 0 0 0"/><polygon points="6 0 0 6 0 7.4 7.4 0 6 0"/><polygon points="12.6 0 0 12.6 0 14 14 0 12.6 0"/><polygon points="19.3 0 0 19.3 0 20.7 20.7 0 19.3 0"/><polygon points="26 0 0 26 0 27.4 27.4 0 26 0"/><polygon points="32.6 0 0 32.6 0 34 34 0 32.6 0"/><polygon points="39.3 0 0 39.3 0 40.7 40.7 0 39.3 0"/><polygon points="46 0 0 46 0 47.4 47.4 0 46 0"/><polygon points="52.6 0 0 52.6 0 54 54 0 52.6 0"/><polygon points="60 0 59.3 0 0 59.3 0 60 0.7 60 60 0.7 60 0"/><polygon points="7.4 60 60 7.4 60 6 6 60 7.4 60"/><polygon points="14 60 60 14 60 12.6 12.6 60 14 60"/><polygon points="20.7 60 60 20.7 60 19.3 19.3 60 20.7 60"/><polygon points="27.4 60 60 27.4 60 26 26 60 27.4 60"/><polygon points="34 60 60 34 60 32.6 32.6 60 34 60"/><polygon points="40.7 60 60 40.7 60 39.3 39.3 60 40.7 60"/><polygon points="47.4 60 60 47.4 60 46 46 60 47.4 60"/><polygon points="54 60 60 54 60 52.6 52.6 60 54 60"/><polygon points="60 60 60 59.3 59.3 60 60 60"/></g></svg>